# xmcd
# 
# Track frame offsets:
#     150
#     20722
#     49206
#     81206
#     103788
#     132738
#     158640
#     186254
#     209491
#     239479
#     264284
#     287872
#     312946
# 
# Disc length: 4432
# 
# Revision: 1
# Processed by: cddbd v1.5.2PL0 Copyright (c) Steve Scherf et al.
# Submitted via: BonkEnc v1.0.8
# 
DISCID=c3114e0d
DTITLE=Kevin Yost  - The Jazz Influence 3
DYEAR=2008
DGENRE=Jazz
TTITLE0=Jazz is
TTITLE1=Full of Grace
TTITLE2=Jazz Music
TTITLE3=Front Man
TTITLE4=Emotional Groove
TTITLE5=Go go go
TTITLE6=Duck Sauce
TTITLE7=More of You
TTITLE8=So Many Sounds
TTITLE9=Intervetion of One
TTITLE10=Discipline
TTITLE11=Gotta Get it Out
TTITLE12=The Art of Creativity
EXTD=YEAR: 2008
EXTT0=
EXTT1=
EXTT2=
EXTT3=
EXTT4=
EXTT5=
EXTT6=
EXTT7=
EXTT8=
EXTT9=
EXTT10=
EXTT11=
EXTT12=
PLAYORDER=
